<svg width="486" height="400" viewBox="0 0 486 400" fill="none" xmlns="http://www.w3.org/2000/svg">
<path d="M223.839 7.76823C184.414 14.8704 145.198 25.5439 107.077 38.024C101.645 34.1357 71.186 53.9675 68.3599 56.3137C59.2055 63.9136 53.223 73.969 47.2693 84.0645C43.8968 89.7832 37.2781 93.0012 31.8768 96.4229C15.9022 106.543 -1.10041 118.738 0.0558542 139.936C0.822178 153.986 5.08741 168.258 8.34411 181.822C15.8008 212.877 24.6178 241.693 43.1252 268.182C59.2533 291.265 79.3406 308.415 103.955 322.426C130.66 337.626 181.506 360.227 208.89 369.787C275.031 392.878 344.27 408.295 414.32 394.134C464.945 383.9 499.126 366.817 539.31 335.08C574.433 307.341 606.612 270.124 603.322 222.375C601.347 193.698 585.151 161.428 570.021 137.642C538.129 87.5042 486.886 54.7416 433.561 30.8569C393.931 13.1062 353.408 1.69227 309.829 0.219997C277.751 -0.863717 255.193 2.11992 223.839 7.76823Z" fill="#62B6CB"/>
</svg>
