<svg width="454" height="400" viewBox="0 0 454 400" fill="none" xmlns="http://www.w3.org/2000/svg">
<path d="M73.8387 7.76823C34.4141 14.8704 -4.8017 25.5439 -42.9235 38.024C-48.355 34.1357 -78.814 53.9675 -81.6401 56.3137C-90.7945 63.9136 -96.777 73.969 -102.731 84.0645C-106.103 89.7832 -112.722 93.0012 -118.123 96.4229C-134.098 106.543 -151.1 118.738 -149.944 139.936C-149.178 153.986 -144.913 168.258 -141.656 181.822C-134.199 212.877 -125.382 241.693 -106.875 268.182C-90.7467 291.265 -70.6594 308.415 -46.045 322.426C-19.3401 337.626 31.5063 360.227 58.8902 369.787C125.031 392.878 194.27 408.295 264.32 394.134C314.945 383.9 349.126 366.817 389.31 335.08C424.433 307.341 456.612 270.124 453.322 222.375C451.347 193.698 435.151 161.428 420.021 137.642C388.129 87.5042 336.886 54.7416 283.561 30.8569C243.931 13.1062 203.408 1.69227 159.829 0.219997C127.751 -0.863717 105.193 2.11992 73.8387 7.76823Z" fill="#62B6CB"/>
</svg>
